# xmcd
#
# Track frame offsets:
#	150
#	16516
#	45840
#	74942
#	106844
#
# Disc length: 1749 seconds
#
# Revision: 7
# Processed by: cddbd v1.5.2PL0 Copyright (c) Steve Scherf et al.
# Submitted via: audiograbber 1.83.01
#
DISCID=3406d305
DTITLE=Aquagen and Ingo Appelt - Tanz Für Mich
DYEAR=2000
DGENRE=Dance
TTITLE0=Tanz Für Mich (Single Version)
TTITLE1=Tanz Für Mich (Extended Vocal Mix)
TTITLE2=Tanz Für Mich (Club Mix)
TTITLE3=Tanz Für Mich (Plug 'n' Play Remix)
TTITLE4=Tanz Für Mich (Marc van Linden Remix)
EXTD=
EXTT0=
EXTT1=
EXTT2=
EXTT3=
EXTT4=
PLAYORDER=
